<svg width="32" height="32" viewBox="0 0 32 32" fill="none" xmlns="http://www.w3.org/2000/svg">
<path d="M16.0361 0C24.8526 0 32 7.14753 32 15.9639V16.0361C32 24.8525 24.8526 32 16.0361 32H15.9639C7.14744 32 0 24.8525 0 16.0361V15.9639C0 7.14753 7.14744 0 15.9639 0H16.0361ZM20.8613 12.4316C20.013 12.4317 19.1812 12.6254 18.4912 13.0117C17.8002 13.3993 17.2558 13.9572 16.876 14.6689L16.8408 14.7363C16.4844 15.4321 16.3057 16.2384 16.3057 17.1309C16.3057 18.0529 16.5018 18.8845 16.8936 19.5947C17.2842 20.304 17.8322 20.864 18.5225 21.2559C19.2118 21.6477 20.0007 21.8447 20.8633 21.8447C21.9191 21.8446 22.8279 21.5758 23.5557 21.0371C24.2771 20.503 24.7842 19.8049 25.0605 18.9668L25.0791 18.9102L25.1504 18.6963H22.792L22.7354 18.8105L22.7344 18.8115C22.5509 19.1832 22.3037 19.4562 21.9971 19.6377C21.6898 19.8195 21.3125 19.915 20.8613 19.915C20.2383 19.915 19.7129 19.7181 19.291 19.3359C18.9211 18.9996 18.6908 18.5592 18.6084 18.0166H25.2148L25.2363 17.8799L25.2422 17.8418C25.2862 17.5665 25.3076 17.2579 25.3076 16.9258C25.3076 16.0547 25.1191 15.2665 24.7432 14.5869C24.3677 13.9084 23.8347 13.3719 23.1602 12.9961C22.4865 12.6202 21.7107 12.4317 20.8613 12.4316ZM6.85449 10.2129V21.79H11.5439C12.3119 21.79 12.998 21.6498 13.582 21.374C14.1772 21.0938 14.6416 20.702 14.96 20.21C15.2795 19.7156 15.4424 19.1533 15.4424 18.54C15.4423 17.8215 15.2135 17.1698 14.7617 16.6025V16.6016C14.4837 16.253 14.165 15.9861 13.8086 15.8057C14.1236 15.614 14.3949 15.3788 14.6191 15.0986C14.9969 14.6255 15.1885 14.0323 15.1885 13.335C15.1885 12.7531 15.0353 12.2181 14.7314 11.7461C14.4288 11.2742 13.9778 10.8959 13.3916 10.6201C12.8176 10.3499 12.126 10.2129 11.3379 10.2129H6.85449ZM11.3223 16.8848C11.867 16.8848 12.2863 17.0167 12.6035 17.2891C12.9073 17.5503 13.0556 17.8967 13.0557 18.3496C13.0557 18.8025 12.9183 19.1225 12.6357 19.3613C12.3432 19.6089 11.9226 19.7344 11.3848 19.7344H9.24023V16.8848H11.3223ZM20.7822 14.3623C21.4198 14.3623 21.9511 14.5503 22.3721 14.9141C22.7374 15.2293 22.9504 15.6415 23.002 16.1504H18.6367C18.7424 15.6315 18.9747 15.2158 19.3232 14.9043L19.374 14.8574C19.7653 14.5288 20.2368 14.3623 20.7822 14.3623ZM11.1797 12.2656C11.6965 12.2656 12.0991 12.3831 12.376 12.6162C12.6416 12.8393 12.7705 13.1477 12.7705 13.5557C12.7705 13.9637 12.6431 14.2803 12.3809 14.4922C12.1039 14.7164 11.6988 14.8301 11.1797 14.8301H9.24023V12.2656H11.1797ZM18.5918 10.4795V11.5283H23.0205V10.4795H18.5918Z" fill="black"/>
</svg>
