<svg width="32" height="32" viewBox="0 0 32 32" fill="none" xmlns="http://www.w3.org/2000/svg">
<path d="M16.0361 0C24.8526 0 32 7.14753 32 15.9639V16.0361C32 24.8525 24.8526 32 16.0361 32H15.9639C7.14744 32 0 24.8525 0 16.0361V15.9639C0 7.14753 7.14744 0 15.9639 0H16.0361ZM8.59961 13.3301V23.5977H11.8438V13.3301H8.59961ZM19.8076 13.1924C19.1426 13.1924 18.5443 13.322 18.0127 13.582C17.4811 13.8421 17.0579 14.1954 16.7441 14.6426V13.3008H13.6445V23.416H16.7441V17.9229C16.7442 17.2465 16.9203 16.7209 17.2705 16.3467C17.6208 15.9716 18.0926 15.7842 18.6836 15.7842C19.2746 15.7842 19.7464 15.9725 20.0967 16.3467C20.4469 16.7209 20.623 17.2465 20.623 17.9229V23.416H23.7041V17.5068C23.7041 16.1653 23.3508 15.1115 22.6436 14.3438V14.3428C21.9373 13.5763 20.9915 13.1924 19.8076 13.1924ZM10.2314 8.40137C9.6624 8.40138 9.19773 8.5694 8.83691 8.9043C8.47719 9.24012 8.2969 9.67289 8.29688 10.166C8.29688 10.6593 8.47609 11.0743 8.83691 11.4092C9.19772 11.7441 9.6749 11.9121 10.2314 11.9121C10.7879 11.9121 11.2457 11.7439 11.6064 11.4092C11.9663 11.0743 12.1465 10.6717 12.1465 10.166C12.1465 9.66034 11.9672 9.23918 11.6064 8.9043C11.2466 8.56944 10.8005 8.40137 10.2314 8.40137Z" fill="black"/>
</svg>
